solid ascii
  facet normal -1.000000e+000 0.000000e+000 3.127389e-016
    outer loop
      vertex   -3.350000e+000 3.550000e+000 1.110000e+001
      vertex   -3.350000e+000 3.550000e+000 1.820000e+001
      vertex   -3.350000e+000 6.550000e+000 1.110000e+001
    endloop
  endfacet
  facet normal -1.000000e+000 0.000000e+000 3.127389e-016
    outer loop
      vertex   -3.350000e+000 6.550000e+000 1.110000e+001
      vertex   -3.350000e+000 3.550000e+000 1.820000e+001
      vertex   -3.350000e+000 6.550000e+000 1.820000e+001
    endloop
  endfacet
  facet normal 0.000000e+000 0.000000e+000 -1.000000e+000
    outer loop
      vertex   3.350000e+000 3.550000e+000 1.110000e+001
      vertex   -3.350000e+000 3.550000e+000 1.110000e+001
      vertex   3.350000e+000 6.550000e+000 1.110000e+001
    endloop
  endfacet
  facet normal -0.000000e+000 0.000000e+000 -1.000000e+000
    outer loop
      vertex   3.350000e+000 6.550000e+000 1.110000e+001
      vertex   -3.350000e+000 3.550000e+000 1.110000e+001
      vertex   -3.350000e+000 6.550000e+000 1.110000e+001
    endloop
  endfacet
  facet normal 1.000000e+000 1.480297e-016 -6.254778e-017
    outer loop
      vertex   3.350000e+000 3.550000e+000 1.820000e+001
      vertex   3.350000e+000 3.550000e+000 1.110000e+001
      vertex   3.350000e+000 6.550000e+000 1.820000e+001
    endloop
  endfacet
  facet normal 1.000000e+000 -0.000000e+000 0.000000e+000
    outer loop
      vertex   3.350000e+000 6.550000e+000 1.820000e+001
      vertex   3.350000e+000 3.550000e+000 1.110000e+001
      vertex   3.350000e+000 6.550000e+000 1.110000e+001
    endloop
  endfacet
  facet normal 0.000000e+000 1.000000e+000 0.000000e+000
    outer loop
      vertex   3.350000e+000 6.550000e+000 1.820000e+001
      vertex   3.350000e+000 6.550000e+000 1.110000e+001
      vertex   -3.350000e+000 6.550000e+000 1.820000e+001
    endloop
  endfacet
  facet normal 0.000000e+000 1.000000e+000 0.000000e+000
    outer loop
      vertex   -3.350000e+000 6.550000e+000 1.820000e+001
      vertex   3.350000e+000 6.550000e+000 1.110000e+001
      vertex   -3.350000e+000 6.550000e+000 1.110000e+001
    endloop
  endfacet
  facet normal -0.000000e+000 0.000000e+000 1.000000e+000
    outer loop
      vertex   -3.550000e+000 3.350000e+000 1.820000e+001
      vertex   -3.550000e+000 -3.350000e+000 1.820000e+001
      vertex   -3.350000e+000 3.550000e+000 1.820000e+001
    endloop
  endfacet
  facet normal 0.000000e+000 0.000000e+000 1.000000e+000
    outer loop
      vertex   -3.350000e+000 3.550000e+000 1.820000e+001
      vertex   -3.550000e+000 -3.350000e+000 1.820000e+001
      vertex   -3.350000e+000 -3.550000e+000 1.820000e+001
    endloop
  endfacet
  facet normal 0.000000e+000 0.000000e+000 1.000000e+000
    outer loop
      vertex   3.350000e+000 -3.550000e+000 1.820000e+001
      vertex   -3.350000e+000 3.550000e+000 1.820000e+001
      vertex   -3.350000e+000 -3.550000e+000 1.820000e+001
    endloop
  endfacet
  facet normal 0.000000e+000 -0.000000e+000 1.000000e+000
    outer loop
      vertex   3.350000e+000 -3.550000e+000 1.820000e+001
      vertex   3.350000e+000 3.550000e+000 1.820000e+001
      vertex   -3.350000e+000 3.550000e+000 1.820000e+001
    endloop
  endfacet
  facet normal 0.000000e+000 -0.000000e+000 1.000000e+000
    outer loop
      vertex   3.350000e+000 -3.550000e+000 1.820000e+001
      vertex   3.550000e+000 -3.350000e+000 1.820000e+001
      vertex   3.350000e+000 3.550000e+000 1.820000e+001
    endloop
  endfacet
  facet normal -0.000000e+000 -0.000000e+000 1.000000e+000
    outer loop
      vertex   3.350000e+000 3.550000e+000 1.820000e+001
      vertex   3.550000e+000 -3.350000e+000 1.820000e+001
      vertex   3.550000e+000 3.350000e+000 1.820000e+001
    endloop
  endfacet
  facet normal 0.000000e+000 0.000000e+000 1.000000e+000
    outer loop
      vertex   3.350000e+000 6.550000e+000 1.820000e+001
      vertex   -3.350000e+000 6.550000e+000 1.820000e+001
      vertex   3.350000e+000 3.550000e+000 1.820000e+001
    endloop
  endfacet
  facet normal 0.000000e+000 0.000000e+000 1.000000e+000
    outer loop
      vertex   3.350000e+000 3.550000e+000 1.820000e+001
      vertex   -3.350000e+000 6.550000e+000 1.820000e+001
      vertex   -3.350000e+000 3.550000e+000 1.820000e+001
    endloop
  endfacet
  facet normal 1.000000e+000 -0.000000e+000 0.000000e+000
    outer loop
      vertex   3.350000e+000 3.550000e+000 7.100000e+000
      vertex   3.350000e+000 3.550000e+000 0.000000e+000
      vertex   3.350000e+000 6.550000e+000 7.100000e+000
    endloop
  endfacet
  facet normal 1.000000e+000 -0.000000e+000 0.000000e+000
    outer loop
      vertex   3.350000e+000 6.550000e+000 7.100000e+000
      vertex   3.350000e+000 3.550000e+000 0.000000e+000
      vertex   3.350000e+000 6.550000e+000 0.000000e+000
    endloop
  endfacet
  facet normal 0.000000e+000 -0.000000e+000 1.000000e+000
    outer loop
      vertex   -3.350000e+000 3.550000e+000 7.100000e+000
      vertex   3.350000e+000 3.550000e+000 7.100000e+000
      vertex   -3.350000e+000 6.550000e+000 7.100000e+000
    endloop
  endfacet
  facet normal -0.000000e+000 0.000000e+000 1.000000e+000
    outer loop
      vertex   -3.350000e+000 6.550000e+000 7.100000e+000
      vertex   3.350000e+000 3.550000e+000 7.100000e+000
      vertex   3.350000e+000 6.550000e+000 7.100000e+000
    endloop
  endfacet
  facet normal -1.000000e+000 2.960595e-016 3.127389e-016
    outer loop
      vertex   -3.350000e+000 3.550000e+000 0.000000e+000
      vertex   -3.350000e+000 3.550000e+000 7.100000e+000
      vertex   -3.350000e+000 6.550000e+000 0.000000e+000
    endloop
  endfacet
  facet normal -1.000000e+000 0.000000e+000 1.876433e-016
    outer loop
      vertex   -3.350000e+000 6.550000e+000 0.000000e+000
      vertex   -3.350000e+000 3.550000e+000 7.100000e+000
      vertex   -3.350000e+000 6.550000e+000 7.100000e+000
    endloop
  endfacet
  facet normal -0.000000e+000 1.000000e+000 0.000000e+000
    outer loop
      vertex   -3.350000e+000 6.550000e+000 0.000000e+000
      vertex   -3.350000e+000 6.550000e+000 7.100000e+000
      vertex   3.350000e+000 6.550000e+000 0.000000e+000
    endloop
  endfacet
  facet normal 0.000000e+000 1.000000e+000 -0.000000e+000
    outer loop
      vertex   3.350000e+000 6.550000e+000 0.000000e+000
      vertex   -3.350000e+000 6.550000e+000 7.100000e+000
      vertex   3.350000e+000 6.550000e+000 7.100000e+000
    endloop
  endfacet
  facet normal 0.000000e+000 -0.000000e+000 -1.000000e+000
    outer loop
      vertex   -3.550000e+000 -3.350000e+000 1.040000e+001
      vertex   -2.000000e+000 -2.000000e+000 1.040000e+001
      vertex   -3.350000e+000 -3.550000e+000 1.040000e+001
    endloop
  endfacet
  facet normal 0.000000e+000 0.000000e+000 -1.000000e+000
    outer loop
      vertex   -3.550000e+000 -3.350000e+000 1.040000e+001
      vertex   -2.000000e+000 2.000000e+000 1.040000e+001
      vertex   -2.000000e+000 -2.000000e+000 1.040000e+001
    endloop
  endfacet
  facet normal 0.000000e+000 0.000000e+000 -1.000000e+000
    outer loop
      vertex   -3.550000e+000 -3.350000e+000 1.040000e+001
      vertex   -3.550000e+000 3.350000e+000 1.040000e+001
      vertex   -2.000000e+000 2.000000e+000 1.040000e+001
    endloop
  endfacet
  facet normal 0.000000e+000 0.000000e+000 -1.000000e+000
    outer loop
      vertex   -2.000000e+000 2.000000e+000 1.040000e+001
      vertex   -3.550000e+000 3.350000e+000 1.040000e+001
      vertex   -3.350000e+000 3.550000e+000 1.040000e+001
    endloop
  endfacet
  facet normal -0.000000e+000 0.000000e+000 -1.000000e+000
    outer loop
      vertex   3.350000e+000 3.550000e+000 1.040000e+001
      vertex   -2.000000e+000 2.000000e+000 1.040000e+001
      vertex   -3.350000e+000 3.550000e+000 1.040000e+001
    endloop
  endfacet
  facet normal -0.000000e+000 0.000000e+000 -1.000000e+000
    outer loop
      vertex   3.350000e+000 3.550000e+000 1.040000e+001
      vertex   2.000000e+000 2.000000e+000 1.040000e+001
      vertex   -2.000000e+000 2.000000e+000 1.040000e+001
    endloop
  endfacet
  facet normal 0.000000e+000 -0.000000e+000 -1.000000e+000
    outer loop
      vertex   3.350000e+000 3.550000e+000 1.040000e+001
      vertex   3.550000e+000 3.350000e+000 1.040000e+001
      vertex   2.000000e+000 2.000000e+000 1.040000e+001
    endloop
  endfacet
  facet normal 0.000000e+000 0.000000e+000 -1.000000e+000
    outer loop
      vertex   2.000000e+000 2.000000e+000 1.040000e+001
      vertex   3.550000e+000 3.350000e+000 1.040000e+001
      vertex   3.550000e+000 -3.350000e+000 1.040000e+001
    endloop
  endfacet
  facet normal 0.000000e+000 -0.000000e+000 -1.000000e+000
    outer loop
      vertex   2.000000e+000 -2.000000e+000 1.040000e+001
      vertex   3.550000e+000 -3.350000e+000 1.040000e+001
      vertex   3.350000e+000 -3.550000e+000 1.040000e+001
    endloop
  endfacet
  facet normal 0.000000e+000 0.000000e+000 -1.000000e+000
    outer loop
      vertex   -3.350000e+000 -3.550000e+000 1.040000e+001
      vertex   2.000000e+000 -2.000000e+000 1.040000e+001
      vertex   3.350000e+000 -3.550000e+000 1.040000e+001
    endloop
  endfacet
  facet normal 0.000000e+000 0.000000e+000 -1.000000e+000
    outer loop
      vertex   -3.350000e+000 -3.550000e+000 1.040000e+001
      vertex   -2.000000e+000 -2.000000e+000 1.040000e+001
      vertex   2.000000e+000 -2.000000e+000 1.040000e+001
    endloop
  endfacet
  facet normal -0.000000e+000 -0.000000e+000 -1.000000e+000
    outer loop
      vertex   2.000000e+000 2.000000e+000 1.040000e+001
      vertex   3.550000e+000 -3.350000e+000 1.040000e+001
      vertex   2.000000e+000 -2.000000e+000 1.040000e+001
    endloop
  endfacet
  facet normal -1.000000e+000 -1.988459e-016 0.000000e+000
    outer loop
      vertex   -3.550000e+000 3.350000e+000 1.040000e+001
      vertex   -3.550000e+000 -3.350000e+000 1.040000e+001
      vertex   -3.550000e+000 3.350000e+000 1.820000e+001
    endloop
  endfacet
  facet normal -1.000000e+000 -1.988459e-016 0.000000e+000
    outer loop
      vertex   -3.550000e+000 3.350000e+000 1.820000e+001
      vertex   -3.550000e+000 -3.350000e+000 1.040000e+001
      vertex   -3.550000e+000 -3.350000e+000 1.820000e+001
    endloop
  endfacet
  facet normal -7.071068e-001 7.071068e-001 -2.242989e-015
    outer loop
      vertex   -3.350000e+000 3.550000e+000 1.040000e+001
      vertex   -3.550000e+000 3.350000e+000 1.040000e+001
      vertex   -3.350000e+000 3.550000e+000 1.110000e+001
    endloop
  endfacet
  facet normal -7.071068e-001 7.071068e-001 0.000000e+000
    outer loop
      vertex   -3.350000e+000 3.550000e+000 1.110000e+001
      vertex   -3.550000e+000 3.350000e+000 1.040000e+001
      vertex   -3.550000e+000 3.350000e+000 1.820000e+001
    endloop
  endfacet
  facet normal -7.071068e-001 7.071068e-001 2.211398e-016
    outer loop
      vertex   -3.350000e+000 3.550000e+000 1.820000e+001
      vertex   -3.350000e+000 3.550000e+000 1.110000e+001
      vertex   -3.550000e+000 3.350000e+000 1.820000e+001
    endloop
  endfacet
  facet normal -0.000000e+000 1.000000e+000 0.000000e+000
    outer loop
      vertex   -3.350000e+000 3.550000e+000 1.110000e+001
      vertex   3.350000e+000 3.550000e+000 1.110000e+001
      vertex   -3.350000e+000 3.550000e+000 1.040000e+001
    endloop
  endfacet
  facet normal -0.000000e+000 1.000000e+000 0.000000e+000
    outer loop
      vertex   -3.350000e+000 3.550000e+000 1.040000e+001
      vertex   3.350000e+000 3.550000e+000 1.110000e+001
      vertex   3.350000e+000 3.550000e+000 1.040000e+001
    endloop
  endfacet
  facet normal 7.071068e-001 7.071068e-001 4.485978e-016
    outer loop
      vertex   3.350000e+000 3.550000e+000 1.040000e+001
      vertex   3.350000e+000 3.550000e+000 1.110000e+001
      vertex   3.550000e+000 3.350000e+000 1.040000e+001
    endloop
  endfacet
  facet normal 7.071068e-001 7.071068e-001 0.000000e+000
    outer loop
      vertex   3.550000e+000 3.350000e+000 1.040000e+001
      vertex   3.350000e+000 3.550000e+000 1.110000e+001
      vertex   3.550000e+000 3.350000e+000 1.820000e+001
    endloop
  endfacet
  facet normal 7.071068e-001 7.071068e-001 -4.422796e-017
    outer loop
      vertex   3.550000e+000 3.350000e+000 1.820000e+001
      vertex   3.350000e+000 3.550000e+000 1.110000e+001
      vertex   3.350000e+000 3.550000e+000 1.820000e+001
    endloop
  endfacet
  facet normal 1.000000e+000 1.325639e-016 0.000000e+000
    outer loop
      vertex   3.550000e+000 -3.350000e+000 1.040000e+001
      vertex   3.550000e+000 3.350000e+000 1.040000e+001
      vertex   3.550000e+000 -3.350000e+000 1.820000e+001
    endloop
  endfacet
  facet normal 1.000000e+000 1.325639e-016 -0.000000e+000
    outer loop
      vertex   3.550000e+000 -3.350000e+000 1.820000e+001
      vertex   3.550000e+000 3.350000e+000 1.040000e+001
      vertex   3.550000e+000 3.350000e+000 1.820000e+001
    endloop
  endfacet
  facet normal 7.071068e-001 -7.071068e-001 0.000000e+000
    outer loop
      vertex   3.550000e+000 -3.350000e+000 1.040000e+001
      vertex   3.550000e+000 -3.350000e+000 1.820000e+001
      vertex   3.350000e+000 -3.550000e+000 1.040000e+001
    endloop
  endfacet
  facet normal 7.071068e-001 -7.071068e-001 0.000000e+000
    outer loop
      vertex   3.350000e+000 -3.550000e+000 1.040000e+001
      vertex   3.550000e+000 -3.350000e+000 1.820000e+001
      vertex   3.350000e+000 -3.550000e+000 1.820000e+001
    endloop
  endfacet
  facet normal 1.325639e-016 -1.000000e+000 0.000000e+000
    outer loop
      vertex   -3.350000e+000 -3.550000e+000 1.040000e+001
      vertex   3.350000e+000 -3.550000e+000 1.040000e+001
      vertex   -3.350000e+000 -3.550000e+000 1.820000e+001
    endloop
  endfacet
  facet normal 1.325639e-016 -1.000000e+000 0.000000e+000
    outer loop
      vertex   -3.350000e+000 -3.550000e+000 1.820000e+001
      vertex   3.350000e+000 -3.550000e+000 1.040000e+001
      vertex   3.350000e+000 -3.550000e+000 1.820000e+001
    endloop
  endfacet
  facet normal -7.071068e-001 -7.071068e-001 0.000000e+000
    outer loop
      vertex   -3.350000e+000 -3.550000e+000 1.040000e+001
      vertex   -3.350000e+000 -3.550000e+000 1.820000e+001
      vertex   -3.550000e+000 -3.350000e+000 1.040000e+001
    endloop
  endfacet
  facet normal -7.071068e-001 -7.071068e-001 0.000000e+000
    outer loop
      vertex   -3.550000e+000 -3.350000e+000 1.040000e+001
      vertex   -3.350000e+000 -3.550000e+000 1.820000e+001
      vertex   -3.550000e+000 -3.350000e+000 1.820000e+001
    endloop
  endfacet
  facet normal 1.000000e+000 0.000000e+000 -0.000000e+000
    outer loop
      vertex   2.000000e+000 -2.000000e+000 7.800000e+000
      vertex   2.000000e+000 2.000000e+000 7.800000e+000
      vertex   2.000000e+000 -2.000000e+000 1.040000e+001
    endloop
  endfacet
  facet normal 1.000000e+000 -0.000000e+000 0.000000e+000
    outer loop
      vertex   2.000000e+000 -2.000000e+000 1.040000e+001
      vertex   2.000000e+000 2.000000e+000 7.800000e+000
      vertex   2.000000e+000 2.000000e+000 1.040000e+001
    endloop
  endfacet
  facet normal 1.110223e-016 -1.000000e+000 1.708035e-016
    outer loop
      vertex   -2.000000e+000 -2.000000e+000 7.800000e+000
      vertex   2.000000e+000 -2.000000e+000 7.800000e+000
      vertex   -2.000000e+000 -2.000000e+000 1.040000e+001
    endloop
  endfacet
  facet normal 0.000000e+000 -1.000000e+000 0.000000e+000
    outer loop
      vertex   -2.000000e+000 -2.000000e+000 1.040000e+001
      vertex   2.000000e+000 -2.000000e+000 7.800000e+000
      vertex   2.000000e+000 -2.000000e+000 1.040000e+001
    endloop
  endfacet
  facet normal -1.000000e+000 -1.665335e-016 0.000000e+000
    outer loop
      vertex   -2.000000e+000 2.000000e+000 7.800000e+000
      vertex   -2.000000e+000 -2.000000e+000 7.800000e+000
      vertex   -2.000000e+000 2.000000e+000 1.040000e+001
    endloop
  endfacet
  facet normal -1.000000e+000 -1.665335e-016 2.844450e-032
    outer loop
      vertex   -2.000000e+000 2.000000e+000 1.040000e+001
      vertex   -2.000000e+000 -2.000000e+000 7.800000e+000
      vertex   -2.000000e+000 -2.000000e+000 1.040000e+001
    endloop
  endfacet
  facet normal 0.000000e+000 1.000000e+000 -0.000000e+000
    outer loop
      vertex   2.000000e+000 2.000000e+000 7.800000e+000
      vertex   -2.000000e+000 2.000000e+000 7.800000e+000
      vertex   2.000000e+000 2.000000e+000 1.040000e+001
    endloop
  endfacet
  facet normal 0.000000e+000 1.000000e+000 -0.000000e+000
    outer loop
      vertex   2.000000e+000 2.000000e+000 1.040000e+001
      vertex   -2.000000e+000 2.000000e+000 7.800000e+000
      vertex   -2.000000e+000 2.000000e+000 1.040000e+001
    endloop
  endfacet
  facet normal -0.000000e+000 -0.000000e+000 1.000000e+000
    outer loop
      vertex   2.000000e+000 -2.000000e+000 7.800000e+000
      vertex   3.550000e+000 -3.350000e+000 7.800000e+000
      vertex   2.000000e+000 2.000000e+000 7.800000e+000
    endloop
  endfacet
  facet normal -0.000000e+000 0.000000e+000 1.000000e+000
    outer loop
      vertex   2.000000e+000 -2.000000e+000 7.800000e+000
      vertex   3.350000e+000 -3.550000e+000 7.800000e+000
      vertex   3.550000e+000 -3.350000e+000 7.800000e+000
    endloop
  endfacet
  facet normal 0.000000e+000 0.000000e+000 1.000000e+000
    outer loop
      vertex   2.000000e+000 -2.000000e+000 7.800000e+000
      vertex   -2.000000e+000 -2.000000e+000 7.800000e+000
      vertex   3.350000e+000 -3.550000e+000 7.800000e+000
    endloop
  endfacet
  facet normal 0.000000e+000 0.000000e+000 1.000000e+000
    outer loop
      vertex   3.350000e+000 -3.550000e+000 7.800000e+000
      vertex   -2.000000e+000 -2.000000e+000 7.800000e+000
      vertex   -3.350000e+000 -3.550000e+000 7.800000e+000
    endloop
  endfacet
  facet normal 0.000000e+000 -0.000000e+000 1.000000e+000
    outer loop
      vertex   -3.350000e+000 -3.550000e+000 7.800000e+000
      vertex   -2.000000e+000 -2.000000e+000 7.800000e+000
      vertex   -3.550000e+000 -3.350000e+000 7.800000e+000
    endloop
  endfacet
  facet normal 0.000000e+000 -0.000000e+000 1.000000e+000
    outer loop
      vertex   -3.550000e+000 -3.350000e+000 7.800000e+000
      vertex   -2.000000e+000 -2.000000e+000 7.800000e+000
      vertex   -2.000000e+000 2.000000e+000 7.800000e+000
    endloop
  endfacet
  facet normal -0.000000e+000 -0.000000e+000 1.000000e+000
    outer loop
      vertex   -3.550000e+000 3.350000e+000 7.800000e+000
      vertex   -2.000000e+000 2.000000e+000 7.800000e+000
      vertex   -3.350000e+000 3.550000e+000 7.800000e+000
    endloop
  endfacet
  facet normal -0.000000e+000 0.000000e+000 1.000000e+000
    outer loop
      vertex   -3.550000e+000 3.350000e+000 7.800000e+000
      vertex   -3.550000e+000 -3.350000e+000 7.800000e+000
      vertex   -2.000000e+000 2.000000e+000 7.800000e+000
    endloop
  endfacet
  facet normal 0.000000e+000 -0.000000e+000 1.000000e+000
    outer loop
      vertex   -2.000000e+000 2.000000e+000 7.800000e+000
      vertex   2.000000e+000 2.000000e+000 7.800000e+000
      vertex   -3.350000e+000 3.550000e+000 7.800000e+000
    endloop
  endfacet
  facet normal -0.000000e+000 0.000000e+000 1.000000e+000
    outer loop
      vertex   -3.350000e+000 3.550000e+000 7.800000e+000
      vertex   2.000000e+000 2.000000e+000 7.800000e+000
      vertex   3.350000e+000 3.550000e+000 7.800000e+000
    endloop
  endfacet
  facet normal -0.000000e+000 0.000000e+000 1.000000e+000
    outer loop
      vertex   3.350000e+000 3.550000e+000 7.800000e+000
      vertex   2.000000e+000 2.000000e+000 7.800000e+000
      vertex   3.550000e+000 3.350000e+000 7.800000e+000
    endloop
  endfacet
  facet normal 0.000000e+000 0.000000e+000 1.000000e+000
    outer loop
      vertex   3.550000e+000 3.350000e+000 7.800000e+000
      vertex   2.000000e+000 2.000000e+000 7.800000e+000
      vertex   3.550000e+000 -3.350000e+000 7.800000e+000
    endloop
  endfacet
  facet normal -7.071068e-001 -7.071068e-001 -0.000000e+000
    outer loop
      vertex   -3.550000e+000 -3.350000e+000 7.800000e+000
      vertex   -3.550000e+000 -3.350000e+000 0.000000e+000
      vertex   -3.350000e+000 -3.550000e+000 7.800000e+000
    endloop
  endfacet
  facet normal -7.071068e-001 -7.071068e-001 0.000000e+000
    outer loop
      vertex   -3.350000e+000 -3.550000e+000 7.800000e+000
      vertex   -3.550000e+000 -3.350000e+000 0.000000e+000
      vertex   -3.350000e+000 -3.550000e+000 0.000000e+000
    endloop
  endfacet
  facet normal 1.325639e-016 -1.000000e+000 0.000000e+000
    outer loop
      vertex   -3.350000e+000 -3.550000e+000 0.000000e+000
      vertex   3.350000e+000 -3.550000e+000 0.000000e+000
      vertex   -3.350000e+000 -3.550000e+000 7.800000e+000
    endloop
  endfacet
  facet normal 1.325639e-016 -1.000000e+000 0.000000e+000
    outer loop
      vertex   -3.350000e+000 -3.550000e+000 7.800000e+000
      vertex   3.350000e+000 -3.550000e+000 0.000000e+000
      vertex   3.350000e+000 -3.550000e+000 7.800000e+000
    endloop
  endfacet
  facet normal 7.071068e-001 -7.071068e-001 0.000000e+000
    outer loop
      vertex   3.350000e+000 -3.550000e+000 7.800000e+000
      vertex   3.350000e+000 -3.550000e+000 0.000000e+000
      vertex   3.550000e+000 -3.350000e+000 7.800000e+000
    endloop
  endfacet
  facet normal 7.071068e-001 -7.071068e-001 0.000000e+000
    outer loop
      vertex   3.550000e+000 -3.350000e+000 7.800000e+000
      vertex   3.350000e+000 -3.550000e+000 0.000000e+000
      vertex   3.550000e+000 -3.350000e+000 0.000000e+000
    endloop
  endfacet
  facet normal -7.071068e-001 7.071068e-001 -2.242989e-015
    outer loop
      vertex   -3.350000e+000 3.550000e+000 7.800000e+000
      vertex   -3.350000e+000 3.550000e+000 7.100000e+000
      vertex   -3.550000e+000 3.350000e+000 7.800000e+000
    endloop
  endfacet
  facet normal -7.071068e-001 7.071068e-001 0.000000e+000
    outer loop
      vertex   -3.550000e+000 3.350000e+000 7.800000e+000
      vertex   -3.350000e+000 3.550000e+000 7.100000e+000
      vertex   -3.550000e+000 3.350000e+000 0.000000e+000
    endloop
  endfacet
  facet normal -7.071068e-001 7.071068e-001 2.211398e-016
    outer loop
      vertex   -3.550000e+000 3.350000e+000 0.000000e+000
      vertex   -3.350000e+000 3.550000e+000 7.100000e+000
      vertex   -3.350000e+000 3.550000e+000 0.000000e+000
    endloop
  endfacet
  facet normal 0.000000e+000 1.000000e+000 -0.000000e+000
    outer loop
      vertex   3.350000e+000 3.550000e+000 7.100000e+000
      vertex   -3.350000e+000 3.550000e+000 7.100000e+000
      vertex   3.350000e+000 3.550000e+000 7.800000e+000
    endloop
  endfacet
  facet normal 0.000000e+000 1.000000e+000 0.000000e+000
    outer loop
      vertex   3.350000e+000 3.550000e+000 7.800000e+000
      vertex   -3.350000e+000 3.550000e+000 7.100000e+000
      vertex   -3.350000e+000 3.550000e+000 7.800000e+000
    endloop
  endfacet
  facet normal 7.071068e-001 7.071068e-001 4.556072e-016
    outer loop
      vertex   3.350000e+000 3.550000e+000 7.800000e+000
      vertex   3.550000e+000 3.350000e+000 7.800000e+000
      vertex   3.350000e+000 3.550000e+000 7.100000e+000
    endloop
  endfacet
  facet normal 7.071068e-001 7.071068e-001 4.025878e-017
    outer loop
      vertex   3.350000e+000 3.550000e+000 7.100000e+000
      vertex   3.550000e+000 3.350000e+000 7.800000e+000
      vertex   3.550000e+000 3.350000e+000 0.000000e+000
    endloop
  endfacet
  facet normal 7.071068e-001 7.071068e-001 -0.000000e+000
    outer loop
      vertex   3.350000e+000 3.550000e+000 0.000000e+000
      vertex   3.350000e+000 3.550000e+000 7.100000e+000
      vertex   3.550000e+000 3.350000e+000 0.000000e+000
    endloop
  endfacet
  facet normal 1.000000e+000 6.628197e-017 0.000000e+000
    outer loop
      vertex   3.550000e+000 -3.350000e+000 0.000000e+000
      vertex   3.550000e+000 3.350000e+000 0.000000e+000
      vertex   3.550000e+000 -3.350000e+000 7.800000e+000
    endloop
  endfacet
  facet normal 1.000000e+000 1.325639e-016 5.693451e-017
    outer loop
      vertex   3.550000e+000 -3.350000e+000 7.800000e+000
      vertex   3.550000e+000 3.350000e+000 0.000000e+000
      vertex   3.550000e+000 3.350000e+000 7.800000e+000
    endloop
  endfacet
  facet normal -1.000000e+000 -1.988459e-016 0.000000e+000
    outer loop
      vertex   -3.550000e+000 -3.350000e+000 7.800000e+000
      vertex   -3.550000e+000 3.350000e+000 7.800000e+000
      vertex   -3.550000e+000 -3.350000e+000 0.000000e+000
    endloop
  endfacet
  facet normal -1.000000e+000 -1.988459e-016 -0.000000e+000
    outer loop
      vertex   -3.550000e+000 -3.350000e+000 0.000000e+000
      vertex   -3.550000e+000 3.350000e+000 7.800000e+000
      vertex   -3.550000e+000 3.350000e+000 0.000000e+000
    endloop
  endfacet
  facet normal 0.000000e+000 0.000000e+000 -1.000000e+000
    outer loop
      vertex   -3.550000e+000 -3.350000e+000 0.000000e+000
      vertex   -3.350000e+000 3.550000e+000 0.000000e+000
      vertex   -3.350000e+000 -3.550000e+000 0.000000e+000
    endloop
  endfacet
  facet normal 0.000000e+000 0.000000e+000 -1.000000e+000
    outer loop
      vertex   -3.550000e+000 -3.350000e+000 0.000000e+000
      vertex   -3.550000e+000 3.350000e+000 0.000000e+000
      vertex   -3.350000e+000 3.550000e+000 0.000000e+000
    endloop
  endfacet
  facet normal 0.000000e+000 -0.000000e+000 -1.000000e+000
    outer loop
      vertex   -3.350000e+000 6.550000e+000 0.000000e+000
      vertex   3.350000e+000 6.550000e+000 0.000000e+000
      vertex   -3.350000e+000 3.550000e+000 0.000000e+000
    endloop
  endfacet
  facet normal 0.000000e+000 0.000000e+000 -1.000000e+000
    outer loop
      vertex   -3.350000e+000 3.550000e+000 0.000000e+000
      vertex   3.350000e+000 6.550000e+000 0.000000e+000
      vertex   3.350000e+000 3.550000e+000 0.000000e+000
    endloop
  endfacet
  facet normal 0.000000e+000 -0.000000e+000 -1.000000e+000
    outer loop
      vertex   -3.350000e+000 -3.550000e+000 0.000000e+000
      vertex   3.350000e+000 3.550000e+000 0.000000e+000
      vertex   3.350000e+000 -3.550000e+000 0.000000e+000
    endloop
  endfacet
  facet normal 0.000000e+000 0.000000e+000 -1.000000e+000
    outer loop
      vertex   -3.350000e+000 -3.550000e+000 0.000000e+000
      vertex   -3.350000e+000 3.550000e+000 0.000000e+000
      vertex   3.350000e+000 3.550000e+000 0.000000e+000
    endloop
  endfacet
  facet normal -0.000000e+000 -0.000000e+000 -1.000000e+000
    outer loop
      vertex   3.550000e+000 3.350000e+000 0.000000e+000
      vertex   3.550000e+000 -3.350000e+000 0.000000e+000
      vertex   3.350000e+000 3.550000e+000 0.000000e+000
    endloop
  endfacet
  facet normal 0.000000e+000 -0.000000e+000 -1.000000e+000
    outer loop
      vertex   3.350000e+000 3.550000e+000 0.000000e+000
      vertex   3.550000e+000 -3.350000e+000 0.000000e+000
      vertex   3.350000e+000 -3.550000e+000 0.000000e+000
    endloop
  endfacet
endsolid
